<svg width="270" height="2" viewBox="0 0 270 2" fill="none" xmlns="http://www.w3.org/2000/svg">
<path d="M0.126953 1.17383C0.126953 0.976888 0.172526 0.827148 0.263672 0.724609C0.356445 0.62207 0.490723 0.570801 0.666504 0.570801C0.837402 0.570801 0.970052 0.621257 1.06445 0.722168C1.15885 0.823079 1.20605 0.973633 1.20605 1.17383C1.20605 1.36751 1.15885 1.51725 1.06445 1.62305C0.97168 1.72721 0.83903 1.7793 0.666504 1.7793C0.49235 1.7793 0.358887 1.7264 0.266113 1.62061C0.17334 1.51318 0.126953 1.36426 0.126953 1.17383ZM5.00684 1.17383C5.00684 0.976888 5.05241 0.827148 5.14355 0.724609C5.23633 0.62207 5.37061 0.570801 5.54639 0.570801C5.71729 0.570801 5.84993 0.621257 5.94434 0.722168C6.03874 0.823079 6.08594 0.973633 6.08594 1.17383C6.08594 1.36751 6.03874 1.51725 5.94434 1.62305C5.85156 1.72721 5.71891 1.7793 5.54639 1.7793C5.37223 1.7793 5.23877 1.7264 5.146 1.62061C5.05322 1.51318 5.00684 1.36426 5.00684 1.17383ZM9.88672 1.17383C9.88672 0.976888 9.93229 0.827148 10.0234 0.724609C10.1162 0.62207 10.2505 0.570801 10.4263 0.570801C10.5972 0.570801 10.7298 0.621257 10.8242 0.722168C10.9186 0.823079 10.9658 0.973633 10.9658 1.17383C10.9658 1.36751 10.9186 1.51725 10.8242 1.62305C10.7314 1.72721 10.5988 1.7793 10.4263 1.7793C10.2521 1.7793 10.1187 1.7264 10.0259 1.62061C9.93311 1.51318 9.88672 1.36426 9.88672 1.17383ZM14.7666 1.17383C14.7666 0.976888 14.8122 0.827148 14.9033 0.724609C14.9961 0.62207 15.1304 0.570801 15.3062 0.570801C15.4771 0.570801 15.6097 0.621257 15.7041 0.722168C15.7985 0.823079 15.8457 0.973633 15.8457 1.17383C15.8457 1.36751 15.7985 1.51725 15.7041 1.62305C15.6113 1.72721 15.4787 1.7793 15.3062 1.7793C15.132 1.7793 14.9985 1.7264 14.9058 1.62061C14.813 1.51318 14.7666 1.36426 14.7666 1.17383ZM19.6465 1.17383C19.6465 0.976888 19.6921 0.827148 19.7832 0.724609C19.876 0.62207 20.0103 0.570801 20.186 0.570801C20.3569 0.570801 20.4896 0.621257 20.584 0.722168C20.6784 0.823079 20.7256 0.973633 20.7256 1.17383C20.7256 1.36751 20.6784 1.51725 20.584 1.62305C20.4912 1.72721 20.3586 1.7793 20.186 1.7793C20.0119 1.7793 19.8784 1.7264 19.7856 1.62061C19.6929 1.51318 19.6465 1.36426 19.6465 1.17383ZM24.5264 1.17383C24.5264 0.976888 24.5719 0.827148 24.6631 0.724609C24.7559 0.62207 24.8901 0.570801 25.0659 0.570801C25.2368 0.570801 25.3695 0.621257 25.4639 0.722168C25.5583 0.823079 25.6055 0.973633 25.6055 1.17383C25.6055 1.36751 25.5583 1.51725 25.4639 1.62305C25.3711 1.72721 25.2384 1.7793 25.0659 1.7793C24.8918 1.7793 24.7583 1.7264 24.6655 1.62061C24.5728 1.51318 24.5264 1.36426 24.5264 1.17383ZM29.4062 1.17383C29.4062 0.976888 29.4518 0.827148 29.543 0.724609C29.6357 0.62207 29.77 0.570801 29.9458 0.570801C30.1167 0.570801 30.2493 0.621257 30.3438 0.722168C30.4382 0.823079 30.4854 0.973633 30.4854 1.17383C30.4854 1.36751 30.4382 1.51725 30.3438 1.62305C30.251 1.72721 30.1183 1.7793 29.9458 1.7793C29.7716 1.7793 29.6382 1.7264 29.5454 1.62061C29.4526 1.51318 29.4062 1.36426 29.4062 1.17383ZM34.2861 1.17383C34.2861 0.976888 34.3317 0.827148 34.4229 0.724609C34.5156 0.62207 34.6499 0.570801 34.8257 0.570801C34.9966 0.570801 35.1292 0.621257 35.2236 0.722168C35.318 0.823079 35.3652 0.973633 35.3652 1.17383C35.3652 1.36751 35.318 1.51725 35.2236 1.62305C35.1309 1.72721 34.9982 1.7793 34.8257 1.7793C34.6515 1.7793 34.5181 1.7264 34.4253 1.62061C34.3325 1.51318 34.2861 1.36426 34.2861 1.17383ZM39.166 1.17383C39.166 0.976888 39.2116 0.827148 39.3027 0.724609C39.3955 0.62207 39.5298 0.570801 39.7056 0.570801C39.8765 0.570801 40.0091 0.621257 40.1035 0.722168C40.1979 0.823079 40.2451 0.973633 40.2451 1.17383C40.2451 1.36751 40.1979 1.51725 40.1035 1.62305C40.0107 1.72721 39.8781 1.7793 39.7056 1.7793C39.5314 1.7793 39.3979 1.7264 39.3052 1.62061C39.2124 1.51318 39.166 1.36426 39.166 1.17383ZM44.0459 1.17383C44.0459 0.976888 44.0915 0.827148 44.1826 0.724609C44.2754 0.62207 44.4097 0.570801 44.5854 0.570801C44.7563 0.570801 44.889 0.621257 44.9834 0.722168C45.0778 0.823079 45.125 0.973633 45.125 1.17383C45.125 1.36751 45.0778 1.51725 44.9834 1.62305C44.8906 1.72721 44.758 1.7793 44.5854 1.7793C44.4113 1.7793 44.2778 1.7264 44.1851 1.62061C44.0923 1.51318 44.0459 1.36426 44.0459 1.17383ZM48.9258 1.17383C48.9258 0.976888 48.9714 0.827148 49.0625 0.724609C49.1553 0.62207 49.2896 0.570801 49.4653 0.570801C49.6362 0.570801 49.7689 0.621257 49.8633 0.722168C49.9577 0.823079 50.0049 0.973633 50.0049 1.17383C50.0049 1.36751 49.9577 1.51725 49.8633 1.62305C49.7705 1.72721 49.6379 1.7793 49.4653 1.7793C49.2912 1.7793 49.1577 1.7264 49.0649 1.62061C48.9722 1.51318 48.9258 1.36426 48.9258 1.17383ZM53.8057 1.17383C53.8057 0.976888 53.8512 0.827148 53.9424 0.724609C54.0352 0.62207 54.1694 0.570801 54.3452 0.570801C54.5161 0.570801 54.6488 0.621257 54.7432 0.722168C54.8376 0.823079 54.8848 0.973633 54.8848 1.17383C54.8848 1.36751 54.8376 1.51725 54.7432 1.62305C54.6504 1.72721 54.5177 1.7793 54.3452 1.7793C54.1711 1.7793 54.0376 1.7264 53.9448 1.62061C53.8521 1.51318 53.8057 1.36426 53.8057 1.17383ZM58.6855 1.17383C58.6855 0.976888 58.7311 0.827148 58.8223 0.724609C58.915 0.62207 59.0493 0.570801 59.2251 0.570801C59.396 0.570801 59.5286 0.621257 59.623 0.722168C59.7174 0.823079 59.7646 0.973633 59.7646 1.17383C59.7646 1.36751 59.7174 1.51725 59.623 1.62305C59.5303 1.72721 59.3976 1.7793 59.2251 1.7793C59.0509 1.7793 58.9175 1.7264 58.8247 1.62061C58.7319 1.51318 58.6855 1.36426 58.6855 1.17383ZM63.5654 1.17383C63.5654 0.976888 63.611 0.827148 63.7021 0.724609C63.7949 0.62207 63.9292 0.570801 64.105 0.570801C64.2759 0.570801 64.4085 0.621257 64.5029 0.722168C64.5973 0.823079 64.6445 0.973633 64.6445 1.17383C64.6445 1.36751 64.5973 1.51725 64.5029 1.62305C64.4102 1.72721 64.2775 1.7793 64.105 1.7793C63.9308 1.7793 63.7974 1.7264 63.7046 1.62061C63.6118 1.51318 63.5654 1.36426 63.5654 1.17383ZM68.4453 1.17383C68.4453 0.976888 68.4909 0.827148 68.582 0.724609C68.6748 0.62207 68.8091 0.570801 68.9849 0.570801C69.1558 0.570801 69.2884 0.621257 69.3828 0.722168C69.4772 0.823079 69.5244 0.973633 69.5244 1.17383C69.5244 1.36751 69.4772 1.51725 69.3828 1.62305C69.29 1.72721 69.1574 1.7793 68.9849 1.7793C68.8107 1.7793 68.6772 1.7264 68.5845 1.62061C68.4917 1.51318 68.4453 1.36426 68.4453 1.17383ZM73.3252 1.17383C73.3252 0.976888 73.3708 0.827148 73.4619 0.724609C73.5547 0.62207 73.689 0.570801 73.8647 0.570801C74.0356 0.570801 74.1683 0.621257 74.2627 0.722168C74.3571 0.823079 74.4043 0.973633 74.4043 1.17383C74.4043 1.36751 74.3571 1.51725 74.2627 1.62305C74.1699 1.72721 74.0373 1.7793 73.8647 1.7793C73.6906 1.7793 73.5571 1.7264 73.4644 1.62061C73.3716 1.51318 73.3252 1.36426 73.3252 1.17383ZM78.2051 1.17383C78.2051 0.976888 78.2507 0.827148 78.3418 0.724609C78.4346 0.62207 78.5688 0.570801 78.7446 0.570801C78.9155 0.570801 79.0482 0.621257 79.1426 0.722168C79.237 0.823079 79.2842 0.973633 79.2842 1.17383C79.2842 1.36751 79.237 1.51725 79.1426 1.62305C79.0498 1.72721 78.9172 1.7793 78.7446 1.7793C78.5705 1.7793 78.437 1.7264 78.3442 1.62061C78.2515 1.51318 78.2051 1.36426 78.2051 1.17383ZM83.085 1.17383C83.085 0.976888 83.1305 0.827148 83.2217 0.724609C83.3145 0.62207 83.4487 0.570801 83.6245 0.570801C83.7954 0.570801 83.9281 0.621257 84.0225 0.722168C84.1169 0.823079 84.1641 0.973633 84.1641 1.17383C84.1641 1.36751 84.1169 1.51725 84.0225 1.62305C83.9297 1.72721 83.797 1.7793 83.6245 1.7793C83.4504 1.7793 83.3169 1.7264 83.2241 1.62061C83.1313 1.51318 83.085 1.36426 83.085 1.17383ZM87.9648 1.17383C87.9648 0.976888 88.0104 0.827148 88.1016 0.724609C88.1943 0.62207 88.3286 0.570801 88.5044 0.570801C88.6753 0.570801 88.8079 0.621257 88.9023 0.722168C88.9967 0.823079 89.0439 0.973633 89.0439 1.17383C89.0439 1.36751 88.9967 1.51725 88.9023 1.62305C88.8096 1.72721 88.6769 1.7793 88.5044 1.7793C88.3302 1.7793 88.1968 1.7264 88.104 1.62061C88.0112 1.51318 87.9648 1.36426 87.9648 1.17383ZM92.8447 1.17383C92.8447 0.976888 92.8903 0.827148 92.9814 0.724609C93.0742 0.62207 93.2085 0.570801 93.3843 0.570801C93.5552 0.570801 93.6878 0.621257 93.7822 0.722168C93.8766 0.823079 93.9238 0.973633 93.9238 1.17383C93.9238 1.36751 93.8766 1.51725 93.7822 1.62305C93.6895 1.72721 93.5568 1.7793 93.3843 1.7793C93.2101 1.7793 93.0767 1.7264 92.9839 1.62061C92.8911 1.51318 92.8447 1.36426 92.8447 1.17383ZM97.7246 1.17383C97.7246 0.976888 97.7702 0.827148 97.8613 0.724609C97.9541 0.62207 98.0884 0.570801 98.2642 0.570801C98.4351 0.570801 98.5677 0.621257 98.6621 0.722168C98.7565 0.823079 98.8037 0.973633 98.8037 1.17383C98.8037 1.36751 98.7565 1.51725 98.6621 1.62305C98.5693 1.72721 98.4367 1.7793 98.2642 1.7793C98.09 1.7793 97.9565 1.7264 97.8638 1.62061C97.771 1.51318 97.7246 1.36426 97.7246 1.17383ZM102.604 1.17383C102.604 0.976888 102.65 0.827148 102.741 0.724609C102.834 0.62207 102.968 0.570801 103.144 0.570801C103.315 0.570801 103.448 0.621257 103.542 0.722168C103.636 0.823079 103.684 0.973633 103.684 1.17383C103.684 1.36751 103.636 1.51725 103.542 1.62305C103.449 1.72721 103.317 1.7793 103.144 1.7793C102.97 1.7793 102.836 1.7264 102.744 1.62061C102.651 1.51318 102.604 1.36426 102.604 1.17383ZM107.484 1.17383C107.484 0.976888 107.53 0.827148 107.621 0.724609C107.714 0.62207 107.848 0.570801 108.024 0.570801C108.195 0.570801 108.327 0.621257 108.422 0.722168C108.516 0.823079 108.563 0.973633 108.563 1.17383C108.563 1.36751 108.516 1.51725 108.422 1.62305C108.329 1.72721 108.196 1.7793 108.024 1.7793C107.85 1.7793 107.716 1.7264 107.624 1.62061C107.531 1.51318 107.484 1.36426 107.484 1.17383ZM112.364 1.17383C112.364 0.976888 112.41 0.827148 112.501 0.724609C112.594 0.62207 112.728 0.570801 112.904 0.570801C113.075 0.570801 113.207 0.621257 113.302 0.722168C113.396 0.823079 113.443 0.973633 113.443 1.17383C113.443 1.36751 113.396 1.51725 113.302 1.62305C113.209 1.72721 113.076 1.7793 112.904 1.7793C112.73 1.7793 112.596 1.7264 112.503 1.62061C112.411 1.51318 112.364 1.36426 112.364 1.17383ZM117.244 1.17383C117.244 0.976888 117.29 0.827148 117.381 0.724609C117.474 0.62207 117.608 0.570801 117.784 0.570801C117.955 0.570801 118.087 0.621257 118.182 0.722168C118.276 0.823079 118.323 0.973633 118.323 1.17383C118.323 1.36751 118.276 1.51725 118.182 1.62305C118.089 1.72721 117.956 1.7793 117.784 1.7793C117.61 1.7793 117.476 1.7264 117.383 1.62061C117.291 1.51318 117.244 1.36426 117.244 1.17383ZM122.124 1.17383C122.124 0.976888 122.17 0.827148 122.261 0.724609C122.354 0.62207 122.488 0.570801 122.664 0.570801C122.834 0.570801 122.967 0.621257 123.062 0.722168C123.156 0.823079 123.203 0.973633 123.203 1.17383C123.203 1.36751 123.156 1.51725 123.062 1.62305C122.969 1.72721 122.836 1.7793 122.664 1.7793C122.489 1.7793 122.356 1.7264 122.263 1.62061C122.17 1.51318 122.124 1.36426 122.124 1.17383ZM127.004 1.17383C127.004 0.976888 127.049 0.827148 127.141 0.724609C127.233 0.62207 127.368 0.570801 127.543 0.570801C127.714 0.570801 127.847 0.621257 127.941 0.722168C128.036 0.823079 128.083 0.973633 128.083 1.17383C128.083 1.36751 128.036 1.51725 127.941 1.62305C127.849 1.72721 127.716 1.7793 127.543 1.7793C127.369 1.7793 127.236 1.7264 127.143 1.62061C127.05 1.51318 127.004 1.36426 127.004 1.17383ZM131.884 1.17383C131.884 0.976888 131.929 0.827148 132.021 0.724609C132.113 0.62207 132.248 0.570801 132.423 0.570801C132.594 0.570801 132.727 0.621257 132.821 0.722168C132.916 0.823079 132.963 0.973633 132.963 1.17383C132.963 1.36751 132.916 1.51725 132.821 1.62305C132.729 1.72721 132.596 1.7793 132.423 1.7793C132.249 1.7793 132.116 1.7264 132.023 1.62061C131.93 1.51318 131.884 1.36426 131.884 1.17383ZM136.764 1.17383C136.764 0.976888 136.809 0.827148 136.9 0.724609C136.993 0.62207 137.127 0.570801 137.303 0.570801C137.474 0.570801 137.607 0.621257 137.701 0.722168C137.796 0.823079 137.843 0.973633 137.843 1.17383C137.843 1.36751 137.796 1.51725 137.701 1.62305C137.608 1.72721 137.476 1.7793 137.303 1.7793C137.129 1.7793 136.996 1.7264 136.903 1.62061C136.81 1.51318 136.764 1.36426 136.764 1.17383ZM141.644 1.17383C141.644 0.976888 141.689 0.827148 141.78 0.724609C141.873 0.62207 142.007 0.570801 142.183 0.570801C142.354 0.570801 142.487 0.621257 142.581 0.722168C142.675 0.823079 142.723 0.973633 142.723 1.17383C142.723 1.36751 142.675 1.51725 142.581 1.62305C142.488 1.72721 142.356 1.7793 142.183 1.7793C142.009 1.7793 141.875 1.7264 141.783 1.62061C141.69 1.51318 141.644 1.36426 141.644 1.17383ZM146.523 1.17383C146.523 0.976888 146.569 0.827148 146.66 0.724609C146.753 0.62207 146.887 0.570801 147.063 0.570801C147.234 0.570801 147.367 0.621257 147.461 0.722168C147.555 0.823079 147.603 0.973633 147.603 1.17383C147.603 1.36751 147.555 1.51725 147.461 1.62305C147.368 1.72721 147.236 1.7793 147.063 1.7793C146.889 1.7793 146.755 1.7264 146.663 1.62061C146.57 1.51318 146.523 1.36426 146.523 1.17383ZM151.403 1.17383C151.403 0.976888 151.449 0.827148 151.54 0.724609C151.633 0.62207 151.767 0.570801 151.943 0.570801C152.114 0.570801 152.246 0.621257 152.341 0.722168C152.435 0.823079 152.482 0.973633 152.482 1.17383C152.482 1.36751 152.435 1.51725 152.341 1.62305C152.248 1.72721 152.115 1.7793 151.943 1.7793C151.769 1.7793 151.635 1.7264 151.542 1.62061C151.45 1.51318 151.403 1.36426 151.403 1.17383ZM156.283 1.17383C156.283 0.976888 156.329 0.827148 156.42 0.724609C156.513 0.62207 156.647 0.570801 156.823 0.570801C156.994 0.570801 157.126 0.621257 157.221 0.722168C157.315 0.823079 157.362 0.973633 157.362 1.17383C157.362 1.36751 157.315 1.51725 157.221 1.62305C157.128 1.72721 156.995 1.7793 156.823 1.7793C156.649 1.7793 156.515 1.7264 156.422 1.62061C156.33 1.51318 156.283 1.36426 156.283 1.17383ZM161.163 1.17383C161.163 0.976888 161.209 0.827148 161.3 0.724609C161.393 0.62207 161.527 0.570801 161.703 0.570801C161.874 0.570801 162.006 0.621257 162.101 0.722168C162.195 0.823079 162.242 0.973633 162.242 1.17383C162.242 1.36751 162.195 1.51725 162.101 1.62305C162.008 1.72721 161.875 1.7793 161.703 1.7793C161.528 1.7793 161.395 1.7264 161.302 1.62061C161.209 1.51318 161.163 1.36426 161.163 1.17383ZM166.043 1.17383C166.043 0.976888 166.089 0.827148 166.18 0.724609C166.272 0.62207 166.407 0.570801 166.583 0.570801C166.753 0.570801 166.886 0.621257 166.98 0.722168C167.075 0.823079 167.122 0.973633 167.122 1.17383C167.122 1.36751 167.075 1.51725 166.98 1.62305C166.888 1.72721 166.755 1.7793 166.583 1.7793C166.408 1.7793 166.275 1.7264 166.182 1.62061C166.089 1.51318 166.043 1.36426 166.043 1.17383ZM170.923 1.17383C170.923 0.976888 170.968 0.827148 171.06 0.724609C171.152 0.62207 171.287 0.570801 171.462 0.570801C171.633 0.570801 171.766 0.621257 171.86 0.722168C171.955 0.823079 172.002 0.973633 172.002 1.17383C172.002 1.36751 171.955 1.51725 171.86 1.62305C171.768 1.72721 171.635 1.7793 171.462 1.7793C171.288 1.7793 171.155 1.7264 171.062 1.62061C170.969 1.51318 170.923 1.36426 170.923 1.17383ZM175.803 1.17383C175.803 0.976888 175.848 0.827148 175.939 0.724609C176.032 0.62207 176.167 0.570801 176.342 0.570801C176.513 0.570801 176.646 0.621257 176.74 0.722168C176.835 0.823079 176.882 0.973633 176.882 1.17383C176.882 1.36751 176.835 1.51725 176.74 1.62305C176.647 1.72721 176.515 1.7793 176.342 1.7793C176.168 1.7793 176.035 1.7264 175.942 1.62061C175.849 1.51318 175.803 1.36426 175.803 1.17383ZM180.683 1.17383C180.683 0.976888 180.728 0.827148 180.819 0.724609C180.912 0.62207 181.046 0.570801 181.222 0.570801C181.393 0.570801 181.526 0.621257 181.62 0.722168C181.715 0.823079 181.762 0.973633 181.762 1.17383C181.762 1.36751 181.715 1.51725 181.62 1.62305C181.527 1.72721 181.395 1.7793 181.222 1.7793C181.048 1.7793 180.915 1.7264 180.822 1.62061C180.729 1.51318 180.683 1.36426 180.683 1.17383ZM185.562 1.17383C185.562 0.976888 185.608 0.827148 185.699 0.724609C185.792 0.62207 185.926 0.570801 186.102 0.570801C186.273 0.570801 186.406 0.621257 186.5 0.722168C186.594 0.823079 186.642 0.973633 186.642 1.17383C186.642 1.36751 186.594 1.51725 186.5 1.62305C186.407 1.72721 186.275 1.7793 186.102 1.7793C185.928 1.7793 185.794 1.7264 185.702 1.62061C185.609 1.51318 185.562 1.36426 185.562 1.17383ZM190.442 1.17383C190.442 0.976888 190.488 0.827148 190.579 0.724609C190.672 0.62207 190.806 0.570801 190.982 0.570801C191.153 0.570801 191.285 0.621257 191.38 0.722168C191.474 0.823079 191.521 0.973633 191.521 1.17383C191.521 1.36751 191.474 1.51725 191.38 1.62305C191.287 1.72721 191.154 1.7793 190.982 1.7793C190.808 1.7793 190.674 1.7264 190.582 1.62061C190.489 1.51318 190.442 1.36426 190.442 1.17383ZM195.322 1.17383C195.322 0.976888 195.368 0.827148 195.459 0.724609C195.552 0.62207 195.686 0.570801 195.862 0.570801C196.033 0.570801 196.165 0.621257 196.26 0.722168C196.354 0.823079 196.401 0.973633 196.401 1.17383C196.401 1.36751 196.354 1.51725 196.26 1.62305C196.167 1.72721 196.034 1.7793 195.862 1.7793C195.688 1.7793 195.554 1.7264 195.461 1.62061C195.369 1.51318 195.322 1.36426 195.322 1.17383ZM200.202 1.17383C200.202 0.976888 200.248 0.827148 200.339 0.724609C200.432 0.62207 200.566 0.570801 200.742 0.570801C200.913 0.570801 201.045 0.621257 201.14 0.722168C201.234 0.823079 201.281 0.973633 201.281 1.17383C201.281 1.36751 201.234 1.51725 201.14 1.62305C201.047 1.72721 200.914 1.7793 200.742 1.7793C200.568 1.7793 200.434 1.7264 200.341 1.62061C200.249 1.51318 200.202 1.36426 200.202 1.17383ZM205.082 1.17383C205.082 0.976888 205.128 0.827148 205.219 0.724609C205.312 0.62207 205.446 0.570801 205.622 0.570801C205.792 0.570801 205.925 0.621257 206.02 0.722168C206.114 0.823079 206.161 0.973633 206.161 1.17383C206.161 1.36751 206.114 1.51725 206.02 1.62305C205.927 1.72721 205.794 1.7793 205.622 1.7793C205.447 1.7793 205.314 1.7264 205.221 1.62061C205.128 1.51318 205.082 1.36426 205.082 1.17383ZM209.962 1.17383C209.962 0.976888 210.007 0.827148 210.099 0.724609C210.191 0.62207 210.326 0.570801 210.501 0.570801C210.672 0.570801 210.805 0.621257 210.899 0.722168C210.994 0.823079 211.041 0.973633 211.041 1.17383C211.041 1.36751 210.994 1.51725 210.899 1.62305C210.807 1.72721 210.674 1.7793 210.501 1.7793C210.327 1.7793 210.194 1.7264 210.101 1.62061C210.008 1.51318 209.962 1.36426 209.962 1.17383ZM214.842 1.17383C214.842 0.976888 214.887 0.827148 214.979 0.724609C215.071 0.62207 215.206 0.570801 215.381 0.570801C215.552 0.570801 215.685 0.621257 215.779 0.722168C215.874 0.823079 215.921 0.973633 215.921 1.17383C215.921 1.36751 215.874 1.51725 215.779 1.62305C215.687 1.72721 215.554 1.7793 215.381 1.7793C215.207 1.7793 215.074 1.7264 214.981 1.62061C214.888 1.51318 214.842 1.36426 214.842 1.17383ZM219.722 1.17383C219.722 0.976888 219.767 0.827148 219.858 0.724609C219.951 0.62207 220.085 0.570801 220.261 0.570801C220.432 0.570801 220.565 0.621257 220.659 0.722168C220.754 0.823079 220.801 0.973633 220.801 1.17383C220.801 1.36751 220.754 1.51725 220.659 1.62305C220.566 1.72721 220.434 1.7793 220.261 1.7793C220.087 1.7793 219.954 1.7264 219.861 1.62061C219.768 1.51318 219.722 1.36426 219.722 1.17383ZM224.602 1.17383C224.602 0.976888 224.647 0.827148 224.738 0.724609C224.831 0.62207 224.965 0.570801 225.141 0.570801C225.312 0.570801 225.445 0.621257 225.539 0.722168C225.633 0.823079 225.681 0.973633 225.681 1.17383C225.681 1.36751 225.633 1.51725 225.539 1.62305C225.446 1.72721 225.314 1.7793 225.141 1.7793C224.967 1.7793 224.833 1.7264 224.741 1.62061C224.648 1.51318 224.602 1.36426 224.602 1.17383ZM229.481 1.17383C229.481 0.976888 229.527 0.827148 229.618 0.724609C229.711 0.62207 229.845 0.570801 230.021 0.570801C230.192 0.570801 230.325 0.621257 230.419 0.722168C230.513 0.823079 230.561 0.973633 230.561 1.17383C230.561 1.36751 230.513 1.51725 230.419 1.62305C230.326 1.72721 230.194 1.7793 230.021 1.7793C229.847 1.7793 229.713 1.7264 229.621 1.62061C229.528 1.51318 229.481 1.36426 229.481 1.17383ZM234.361 1.17383C234.361 0.976888 234.407 0.827148 234.498 0.724609C234.591 0.62207 234.725 0.570801 234.901 0.570801C235.072 0.570801 235.204 0.621257 235.299 0.722168C235.393 0.823079 235.44 0.973633 235.44 1.17383C235.44 1.36751 235.393 1.51725 235.299 1.62305C235.206 1.72721 235.073 1.7793 234.901 1.7793C234.727 1.7793 234.593 1.7264 234.5 1.62061C234.408 1.51318 234.361 1.36426 234.361 1.17383ZM239.241 1.17383C239.241 0.976888 239.287 0.827148 239.378 0.724609C239.471 0.62207 239.605 0.570801 239.781 0.570801C239.952 0.570801 240.084 0.621257 240.179 0.722168C240.273 0.823079 240.32 0.973633 240.32 1.17383C240.32 1.36751 240.273 1.51725 240.179 1.62305C240.086 1.72721 239.953 1.7793 239.781 1.7793C239.607 1.7793 239.473 1.7264 239.38 1.62061C239.288 1.51318 239.241 1.36426 239.241 1.17383ZM244.121 1.17383C244.121 0.976888 244.167 0.827148 244.258 0.724609C244.351 0.62207 244.485 0.570801 244.661 0.570801C244.832 0.570801 244.964 0.621257 245.059 0.722168C245.153 0.823079 245.2 0.973633 245.2 1.17383C245.2 1.36751 245.153 1.51725 245.059 1.62305C244.966 1.72721 244.833 1.7793 244.661 1.7793C244.486 1.7793 244.353 1.7264 244.26 1.62061C244.167 1.51318 244.121 1.36426 244.121 1.17383ZM249.001 1.17383C249.001 0.976888 249.047 0.827148 249.138 0.724609C249.23 0.62207 249.365 0.570801 249.541 0.570801C249.711 0.570801 249.844 0.621257 249.938 0.722168C250.033 0.823079 250.08 0.973633 250.08 1.17383C250.08 1.36751 250.033 1.51725 249.938 1.62305C249.846 1.72721 249.713 1.7793 249.541 1.7793C249.366 1.7793 249.233 1.7264 249.14 1.62061C249.047 1.51318 249.001 1.36426 249.001 1.17383ZM253.881 1.17383C253.881 0.976888 253.926 0.827148 254.018 0.724609C254.11 0.62207 254.245 0.570801 254.42 0.570801C254.591 0.570801 254.724 0.621257 254.818 0.722168C254.913 0.823079 254.96 0.973633 254.96 1.17383C254.96 1.36751 254.913 1.51725 254.818 1.62305C254.726 1.72721 254.593 1.7793 254.42 1.7793C254.246 1.7793 254.113 1.7264 254.02 1.62061C253.927 1.51318 253.881 1.36426 253.881 1.17383ZM258.761 1.17383C258.761 0.976888 258.806 0.827148 258.897 0.724609C258.99 0.62207 259.125 0.570801 259.3 0.570801C259.471 0.570801 259.604 0.621257 259.698 0.722168C259.793 0.823079 259.84 0.973633 259.84 1.17383C259.84 1.36751 259.793 1.51725 259.698 1.62305C259.605 1.72721 259.473 1.7793 259.3 1.7793C259.126 1.7793 258.993 1.7264 258.9 1.62061C258.807 1.51318 258.761 1.36426 258.761 1.17383ZM263.641 1.17383C263.641 0.976888 263.686 0.827148 263.777 0.724609C263.87 0.62207 264.004 0.570801 264.18 0.570801C264.351 0.570801 264.484 0.621257 264.578 0.722168C264.673 0.823079 264.72 0.973633 264.72 1.17383C264.72 1.36751 264.673 1.51725 264.578 1.62305C264.485 1.72721 264.353 1.7793 264.18 1.7793C264.006 1.7793 263.873 1.7264 263.78 1.62061C263.687 1.51318 263.641 1.36426 263.641 1.17383ZM268.521 1.17383C268.521 0.976888 268.566 0.827148 268.657 0.724609C268.75 0.62207 268.884 0.570801 269.06 0.570801C269.231 0.570801 269.364 0.621257 269.458 0.722168C269.552 0.823079 269.6 0.973633 269.6 1.17383C269.6 1.36751 269.552 1.51725 269.458 1.62305C269.365 1.72721 269.233 1.7793 269.06 1.7793C268.886 1.7793 268.752 1.7264 268.66 1.62061C268.567 1.51318 268.521 1.36426 268.521 1.17383ZM0.126953 1.17383C0.126953 0.976888 0.172526 0.827148 0.263672 0.724609C0.356445 0.62207 0.490723 0.570801 0.666504 0.570801C0.837402 0.570801 0.970052 0.621257 1.06445 0.722168C1.15885 0.823079 1.20605 0.973633 1.20605 1.17383C1.20605 1.36751 1.15885 1.51725 1.06445 1.62305C0.97168 1.72721 0.83903 1.7793 0.666504 1.7793C0.49235 1.7793 0.358887 1.7264 0.266113 1.62061C0.17334 1.51318 0.126953 1.36426 0.126953 1.17383ZM5.00684 1.17383C5.00684 0.976888 5.05241 0.827148 5.14355 0.724609C5.23633 0.62207 5.37061 0.570801 5.54639 0.570801C5.71729 0.570801 5.84993 0.621257 5.94434 0.722168C6.03874 0.823079 6.08594 0.973633 6.08594 1.17383C6.08594 1.36751 6.03874 1.51725 5.94434 1.62305C5.85156 1.72721 5.71891 1.7793 5.54639 1.7793C5.37223 1.7793 5.23877 1.7264 5.146 1.62061C5.05322 1.51318 5.00684 1.36426 5.00684 1.17383ZM9.88672 1.17383C9.88672 0.976888 9.93229 0.827148 10.0234 0.724609C10.1162 0.62207 10.2505 0.570801 10.4263 0.570801C10.5972 0.570801 10.7298 0.621257 10.8242 0.722168C10.9186 0.823079 10.9658 0.973633 10.9658 1.17383C10.9658 1.36751 10.9186 1.51725 10.8242 1.62305C10.7314 1.72721 10.5988 1.7793 10.4263 1.7793C10.2521 1.7793 10.1187 1.7264 10.0259 1.62061C9.93311 1.51318 9.88672 1.36426 9.88672 1.17383ZM14.7666 1.17383C14.7666 0.976888 14.8122 0.827148 14.9033 0.724609C14.9961 0.62207 15.1304 0.570801 15.3062 0.570801C15.4771 0.570801 15.6097 0.621257 15.7041 0.722168C15.7985 0.823079 15.8457 0.973633 15.8457 1.17383C15.8457 1.36751 15.7985 1.51725 15.7041 1.62305C15.6113 1.72721 15.4787 1.7793 15.3062 1.7793C15.132 1.7793 14.9985 1.7264 14.9058 1.62061C14.813 1.51318 14.7666 1.36426 14.7666 1.17383ZM19.6465 1.17383C19.6465 0.976888 19.6921 0.827148 19.7832 0.724609C19.876 0.62207 20.0103 0.570801 20.186 0.570801C20.3569 0.570801 20.4896 0.621257 20.584 0.722168C20.6784 0.823079 20.7256 0.973633 20.7256 1.17383C20.7256 1.36751 20.6784 1.51725 20.584 1.62305C20.4912 1.72721 20.3586 1.7793 20.186 1.7793C20.0119 1.7793 19.8784 1.7264 19.7856 1.62061C19.6929 1.51318 19.6465 1.36426 19.6465 1.17383ZM24.5264 1.17383C24.5264 0.976888 24.5719 0.827148 24.6631 0.724609C24.7559 0.62207 24.8901 0.570801 25.0659 0.570801C25.2368 0.570801 25.3695 0.621257 25.4639 0.722168C25.5583 0.823079 25.6055 0.973633 25.6055 1.17383C25.6055 1.36751 25.5583 1.51725 25.4639 1.62305C25.3711 1.72721 25.2384 1.7793 25.0659 1.7793C24.8918 1.7793 24.7583 1.7264 24.6655 1.62061C24.5728 1.51318 24.5264 1.36426 24.5264 1.17383ZM29.4062 1.17383C29.4062 0.976888 29.4518 0.827148 29.543 0.724609C29.6357 0.62207 29.77 0.570801 29.9458 0.570801C30.1167 0.570801 30.2493 0.621257 30.3438 0.722168C30.4382 0.823079 30.4854 0.973633 30.4854 1.17383C30.4854 1.36751 30.4382 1.51725 30.3438 1.62305C30.251 1.72721 30.1183 1.7793 29.9458 1.7793C29.7716 1.7793 29.6382 1.7264 29.5454 1.62061C29.4526 1.51318 29.4062 1.36426 29.4062 1.17383ZM34.2861 1.17383C34.2861 0.976888 34.3317 0.827148 34.4229 0.724609C34.5156 0.62207 34.6499 0.570801 34.8257 0.570801C34.9966 0.570801 35.1292 0.621257 35.2236 0.722168C35.318 0.823079 35.3652 0.973633 35.3652 1.17383C35.3652 1.36751 35.318 1.51725 35.2236 1.62305C35.1309 1.72721 34.9982 1.7793 34.8257 1.7793C34.6515 1.7793 34.5181 1.7264 34.4253 1.62061C34.3325 1.51318 34.2861 1.36426 34.2861 1.17383ZM39.166 1.17383C39.166 0.976888 39.2116 0.827148 39.3027 0.724609C39.3955 0.62207 39.5298 0.570801 39.7056 0.570801C39.8765 0.570801 40.0091 0.621257 40.1035 0.722168C40.1979 0.823079 40.2451 0.973633 40.2451 1.17383C40.2451 1.36751 40.1979 1.51725 40.1035 1.62305C40.0107 1.72721 39.8781 1.7793 39.7056 1.7793C39.5314 1.7793 39.3979 1.7264 39.3052 1.62061C39.2124 1.51318 39.166 1.36426 39.166 1.17383ZM44.0459 1.17383C44.0459 0.976888 44.0915 0.827148 44.1826 0.724609C44.2754 0.62207 44.4097 0.570801 44.5854 0.570801C44.7563 0.570801 44.889 0.621257 44.9834 0.722168C45.0778 0.823079 45.125 0.973633 45.125 1.17383C45.125 1.36751 45.0778 1.51725 44.9834 1.62305C44.8906 1.72721 44.758 1.7793 44.5854 1.7793C44.4113 1.7793 44.2778 1.7264 44.1851 1.62061C44.0923 1.51318 44.0459 1.36426 44.0459 1.17383ZM48.9258 1.17383C48.9258 0.976888 48.9714 0.827148 49.0625 0.724609C49.1553 0.62207 49.2896 0.570801 49.4653 0.570801C49.6362 0.570801 49.7689 0.621257 49.8633 0.722168C49.9577 0.823079 50.0049 0.973633 50.0049 1.17383C50.0049 1.36751 49.9577 1.51725 49.8633 1.62305C49.7705 1.72721 49.6379 1.7793 49.4653 1.7793C49.2912 1.7793 49.1577 1.7264 49.0649 1.62061C48.9722 1.51318 48.9258 1.36426 48.9258 1.17383ZM53.8057 1.17383C53.8057 0.976888 53.8512 0.827148 53.9424 0.724609C54.0352 0.62207 54.1694 0.570801 54.3452 0.570801C54.5161 0.570801 54.6488 0.621257 54.7432 0.722168C54.8376 0.823079 54.8848 0.973633 54.8848 1.17383C54.8848 1.36751 54.8376 1.51725 54.7432 1.62305C54.6504 1.72721 54.5177 1.7793 54.3452 1.7793C54.1711 1.7793 54.0376 1.7264 53.9448 1.62061C53.8521 1.51318 53.8057 1.36426 53.8057 1.17383ZM58.6855 1.17383C58.6855 0.976888 58.7311 0.827148 58.8223 0.724609C58.915 0.62207 59.0493 0.570801 59.2251 0.570801C59.396 0.570801 59.5286 0.621257 59.623 0.722168C59.7174 0.823079 59.7646 0.973633 59.7646 1.17383C59.7646 1.36751 59.7174 1.51725 59.623 1.62305C59.5303 1.72721 59.3976 1.7793 59.2251 1.7793C59.0509 1.7793 58.9175 1.7264 58.8247 1.62061C58.7319 1.51318 58.6855 1.36426 58.6855 1.17383ZM63.5654 1.17383C63.5654 0.976888 63.611 0.827148 63.7021 0.724609C63.7949 0.62207 63.9292 0.570801 64.105 0.570801C64.2759 0.570801 64.4085 0.621257 64.5029 0.722168C64.5973 0.823079 64.6445 0.973633 64.6445 1.17383C64.6445 1.36751 64.5973 1.51725 64.5029 1.62305C64.4102 1.72721 64.2775 1.7793 64.105 1.7793C63.9308 1.7793 63.7974 1.7264 63.7046 1.62061C63.6118 1.51318 63.5654 1.36426 63.5654 1.17383ZM68.4453 1.17383C68.4453 0.976888 68.4909 0.827148 68.582 0.724609C68.6748 0.62207 68.8091 0.570801 68.9849 0.570801C69.1558 0.570801 69.2884 0.621257 69.3828 0.722168C69.4772 0.823079 69.5244 0.973633 69.5244 1.17383C69.5244 1.36751 69.4772 1.51725 69.3828 1.62305C69.29 1.72721 69.1574 1.7793 68.9849 1.7793C68.8107 1.7793 68.6772 1.7264 68.5845 1.62061C68.4917 1.51318 68.4453 1.36426 68.4453 1.17383ZM73.3252 1.17383C73.3252 0.976888 73.3708 0.827148 73.4619 0.724609C73.5547 0.62207 73.689 0.570801 73.8647 0.570801C74.0356 0.570801 74.1683 0.621257 74.2627 0.722168C74.3571 0.823079 74.4043 0.973633 74.4043 1.17383C74.4043 1.36751 74.3571 1.51725 74.2627 1.62305C74.1699 1.72721 74.0373 1.7793 73.8647 1.7793C73.6906 1.7793 73.5571 1.7264 73.4644 1.62061C73.3716 1.51318 73.3252 1.36426 73.3252 1.17383ZM78.2051 1.17383C78.2051 0.976888 78.2507 0.827148 78.3418 0.724609C78.4346 0.62207 78.5688 0.570801 78.7446 0.570801C78.9155 0.570801 79.0482 0.621257 79.1426 0.722168C79.237 0.823079 79.2842 0.973633 79.2842 1.17383C79.2842 1.36751 79.237 1.51725 79.1426 1.62305C79.0498 1.72721 78.9172 1.7793 78.7446 1.7793C78.5705 1.7793 78.437 1.7264 78.3442 1.62061C78.2515 1.51318 78.2051 1.36426 78.2051 1.17383ZM83.085 1.17383C83.085 0.976888 83.1305 0.827148 83.2217 0.724609C83.3145 0.62207 83.4487 0.570801 83.6245 0.570801C83.7954 0.570801 83.9281 0.621257 84.0225 0.722168C84.1169 0.823079 84.1641 0.973633 84.1641 1.17383C84.1641 1.36751 84.1169 1.51725 84.0225 1.62305C83.9297 1.72721 83.797 1.7793 83.6245 1.7793C83.4504 1.7793 83.3169 1.7264 83.2241 1.62061C83.1313 1.51318 83.085 1.36426 83.085 1.17383ZM87.9648 1.17383C87.9648 0.976888 88.0104 0.827148 88.1016 0.724609C88.1943 0.62207 88.3286 0.570801 88.5044 0.570801C88.6753 0.570801 88.8079 0.621257 88.9023 0.722168C88.9967 0.823079 89.0439 0.973633 89.0439 1.17383C89.0439 1.36751 88.9967 1.51725 88.9023 1.62305C88.8096 1.72721 88.6769 1.7793 88.5044 1.7793C88.3302 1.7793 88.1968 1.7264 88.104 1.62061C88.0112 1.51318 87.9648 1.36426 87.9648 1.17383ZM92.8447 1.17383C92.8447 0.976888 92.8903 0.827148 92.9814 0.724609C93.0742 0.62207 93.2085 0.570801 93.3843 0.570801C93.5552 0.570801 93.6878 0.621257 93.7822 0.722168C93.8766 0.823079 93.9238 0.973633 93.9238 1.17383C93.9238 1.36751 93.8766 1.51725 93.7822 1.62305C93.6895 1.72721 93.5568 1.7793 93.3843 1.7793C93.2101 1.7793 93.0767 1.7264 92.9839 1.62061C92.8911 1.51318 92.8447 1.36426 92.8447 1.17383ZM97.7246 1.17383C97.7246 0.976888 97.7702 0.827148 97.8613 0.724609C97.9541 0.62207 98.0884 0.570801 98.2642 0.570801C98.4351 0.570801 98.5677 0.621257 98.6621 0.722168C98.7565 0.823079 98.8037 0.973633 98.8037 1.17383C98.8037 1.36751 98.7565 1.51725 98.6621 1.62305C98.5693 1.72721 98.4367 1.7793 98.2642 1.7793C98.09 1.7793 97.9565 1.7264 97.8638 1.62061C97.771 1.51318 97.7246 1.36426 97.7246 1.17383ZM102.604 1.17383C102.604 0.976888 102.65 0.827148 102.741 0.724609C102.834 0.62207 102.968 0.570801 103.144 0.570801C103.315 0.570801 103.448 0.621257 103.542 0.722168C103.636 0.823079 103.684 0.973633 103.684 1.17383C103.684 1.36751 103.636 1.51725 103.542 1.62305C103.449 1.72721 103.317 1.7793 103.144 1.7793C102.97 1.7793 102.836 1.7264 102.744 1.62061C102.651 1.51318 102.604 1.36426 102.604 1.17383ZM107.484 1.17383C107.484 0.976888 107.53 0.827148 107.621 0.724609C107.714 0.62207 107.848 0.570801 108.024 0.570801C108.195 0.570801 108.327 0.621257 108.422 0.722168C108.516 0.823079 108.563 0.973633 108.563 1.17383C108.563 1.36751 108.516 1.51725 108.422 1.62305C108.329 1.72721 108.196 1.7793 108.024 1.7793C107.85 1.7793 107.716 1.7264 107.624 1.62061C107.531 1.51318 107.484 1.36426 107.484 1.17383ZM112.364 1.17383C112.364 0.976888 112.41 0.827148 112.501 0.724609C112.594 0.62207 112.728 0.570801 112.904 0.570801C113.075 0.570801 113.207 0.621257 113.302 0.722168C113.396 0.823079 113.443 0.973633 113.443 1.17383C113.443 1.36751 113.396 1.51725 113.302 1.62305C113.209 1.72721 113.076 1.7793 112.904 1.7793C112.73 1.7793 112.596 1.7264 112.503 1.62061C112.411 1.51318 112.364 1.36426 112.364 1.17383ZM117.244 1.17383C117.244 0.976888 117.29 0.827148 117.381 0.724609C117.474 0.62207 117.608 0.570801 117.784 0.570801C117.955 0.570801 118.087 0.621257 118.182 0.722168C118.276 0.823079 118.323 0.973633 118.323 1.17383C118.323 1.36751 118.276 1.51725 118.182 1.62305C118.089 1.72721 117.956 1.7793 117.784 1.7793C117.61 1.7793 117.476 1.7264 117.383 1.62061C117.291 1.51318 117.244 1.36426 117.244 1.17383ZM122.124 1.17383C122.124 0.976888 122.17 0.827148 122.261 0.724609C122.354 0.62207 122.488 0.570801 122.664 0.570801C122.834 0.570801 122.967 0.621257 123.062 0.722168C123.156 0.823079 123.203 0.973633 123.203 1.17383C123.203 1.36751 123.156 1.51725 123.062 1.62305C122.969 1.72721 122.836 1.7793 122.664 1.7793C122.489 1.7793 122.356 1.7264 122.263 1.62061C122.17 1.51318 122.124 1.36426 122.124 1.17383ZM127.004 1.17383C127.004 0.976888 127.049 0.827148 127.141 0.724609C127.233 0.62207 127.368 0.570801 127.543 0.570801C127.714 0.570801 127.847 0.621257 127.941 0.722168C128.036 0.823079 128.083 0.973633 128.083 1.17383C128.083 1.36751 128.036 1.51725 127.941 1.62305C127.849 1.72721 127.716 1.7793 127.543 1.7793C127.369 1.7793 127.236 1.7264 127.143 1.62061C127.05 1.51318 127.004 1.36426 127.004 1.17383ZM131.884 1.17383C131.884 0.976888 131.929 0.827148 132.021 0.724609C132.113 0.62207 132.248 0.570801 132.423 0.570801C132.594 0.570801 132.727 0.621257 132.821 0.722168C132.916 0.823079 132.963 0.973633 132.963 1.17383C132.963 1.36751 132.916 1.51725 132.821 1.62305C132.729 1.72721 132.596 1.7793 132.423 1.7793C132.249 1.7793 132.116 1.7264 132.023 1.62061C131.93 1.51318 131.884 1.36426 131.884 1.17383ZM136.764 1.17383C136.764 0.976888 136.809 0.827148 136.9 0.724609C136.993 0.62207 137.127 0.570801 137.303 0.570801C137.474 0.570801 137.607 0.621257 137.701 0.722168C137.796 0.823079 137.843 0.973633 137.843 1.17383C137.843 1.36751 137.796 1.51725 137.701 1.62305C137.608 1.72721 137.476 1.7793 137.303 1.7793C137.129 1.7793 136.996 1.7264 136.903 1.62061C136.81 1.51318 136.764 1.36426 136.764 1.17383ZM141.644 1.17383C141.644 0.976888 141.689 0.827148 141.78 0.724609C141.873 0.62207 142.007 0.570801 142.183 0.570801C142.354 0.570801 142.487 0.621257 142.581 0.722168C142.675 0.823079 142.723 0.973633 142.723 1.17383C142.723 1.36751 142.675 1.51725 142.581 1.62305C142.488 1.72721 142.356 1.7793 142.183 1.7793C142.009 1.7793 141.875 1.7264 141.783 1.62061C141.69 1.51318 141.644 1.36426 141.644 1.17383ZM146.523 1.17383C146.523 0.976888 146.569 0.827148 146.66 0.724609C146.753 0.62207 146.887 0.570801 147.063 0.570801C147.234 0.570801 147.367 0.621257 147.461 0.722168C147.555 0.823079 147.603 0.973633 147.603 1.17383C147.603 1.36751 147.555 1.51725 147.461 1.62305C147.368 1.72721 147.236 1.7793 147.063 1.7793C146.889 1.7793 146.755 1.7264 146.663 1.62061C146.57 1.51318 146.523 1.36426 146.523 1.17383ZM151.403 1.17383C151.403 0.976888 151.449 0.827148 151.54 0.724609C151.633 0.62207 151.767 0.570801 151.943 0.570801C152.114 0.570801 152.246 0.621257 152.341 0.722168C152.435 0.823079 152.482 0.973633 152.482 1.17383C152.482 1.36751 152.435 1.51725 152.341 1.62305C152.248 1.72721 152.115 1.7793 151.943 1.7793C151.769 1.7793 151.635 1.7264 151.542 1.62061C151.45 1.51318 151.403 1.36426 151.403 1.17383ZM156.283 1.17383C156.283 0.976888 156.329 0.827148 156.42 0.724609C156.513 0.62207 156.647 0.570801 156.823 0.570801C156.994 0.570801 157.126 0.621257 157.221 0.722168C157.315 0.823079 157.362 0.973633 157.362 1.17383C157.362 1.36751 157.315 1.51725 157.221 1.62305C157.128 1.72721 156.995 1.7793 156.823 1.7793C156.649 1.7793 156.515 1.7264 156.422 1.62061C156.33 1.51318 156.283 1.36426 156.283 1.17383ZM161.163 1.17383C161.163 0.976888 161.209 0.827148 161.3 0.724609C161.393 0.62207 161.527 0.570801 161.703 0.570801C161.874 0.570801 162.006 0.621257 162.101 0.722168C162.195 0.823079 162.242 0.973633 162.242 1.17383C162.242 1.36751 162.195 1.51725 162.101 1.62305C162.008 1.72721 161.875 1.7793 161.703 1.7793C161.528 1.7793 161.395 1.7264 161.302 1.62061C161.209 1.51318 161.163 1.36426 161.163 1.17383ZM166.043 1.17383C166.043 0.976888 166.089 0.827148 166.18 0.724609C166.272 0.62207 166.407 0.570801 166.583 0.570801C166.753 0.570801 166.886 0.621257 166.98 0.722168C167.075 0.823079 167.122 0.973633 167.122 1.17383C167.122 1.36751 167.075 1.51725 166.98 1.62305C166.888 1.72721 166.755 1.7793 166.583 1.7793C166.408 1.7793 166.275 1.7264 166.182 1.62061C166.089 1.51318 166.043 1.36426 166.043 1.17383ZM170.923 1.17383C170.923 0.976888 170.968 0.827148 171.06 0.724609C171.152 0.62207 171.287 0.570801 171.462 0.570801C171.633 0.570801 171.766 0.621257 171.86 0.722168C171.955 0.823079 172.002 0.973633 172.002 1.17383C172.002 1.36751 171.955 1.51725 171.86 1.62305C171.768 1.72721 171.635 1.7793 171.462 1.7793C171.288 1.7793 171.155 1.7264 171.062 1.62061C170.969 1.51318 170.923 1.36426 170.923 1.17383ZM175.803 1.17383C175.803 0.976888 175.848 0.827148 175.939 0.724609C176.032 0.62207 176.167 0.570801 176.342 0.570801C176.513 0.570801 176.646 0.621257 176.74 0.722168C176.835 0.823079 176.882 0.973633 176.882 1.17383C176.882 1.36751 176.835 1.51725 176.74 1.62305C176.647 1.72721 176.515 1.7793 176.342 1.7793C176.168 1.7793 176.035 1.7264 175.942 1.62061C175.849 1.51318 175.803 1.36426 175.803 1.17383ZM180.683 1.17383C180.683 0.976888 180.728 0.827148 180.819 0.724609C180.912 0.62207 181.046 0.570801 181.222 0.570801C181.393 0.570801 181.526 0.621257 181.62 0.722168C181.715 0.823079 181.762 0.973633 181.762 1.17383C181.762 1.36751 181.715 1.51725 181.62 1.62305C181.527 1.72721 181.395 1.7793 181.222 1.7793C181.048 1.7793 180.915 1.7264 180.822 1.62061C180.729 1.51318 180.683 1.36426 180.683 1.17383ZM185.562 1.17383C185.562 0.976888 185.608 0.827148 185.699 0.724609C185.792 0.62207 185.926 0.570801 186.102 0.570801C186.273 0.570801 186.406 0.621257 186.5 0.722168C186.594 0.823079 186.642 0.973633 186.642 1.17383C186.642 1.36751 186.594 1.51725 186.5 1.62305C186.407 1.72721 186.275 1.7793 186.102 1.7793C185.928 1.7793 185.794 1.7264 185.702 1.62061C185.609 1.51318 185.562 1.36426 185.562 1.17383ZM190.442 1.17383C190.442 0.976888 190.488 0.827148 190.579 0.724609C190.672 0.62207 190.806 0.570801 190.982 0.570801C191.153 0.570801 191.285 0.621257 191.38 0.722168C191.474 0.823079 191.521 0.973633 191.521 1.17383C191.521 1.36751 191.474 1.51725 191.38 1.62305C191.287 1.72721 191.154 1.7793 190.982 1.7793C190.808 1.7793 190.674 1.7264 190.582 1.62061C190.489 1.51318 190.442 1.36426 190.442 1.17383ZM195.322 1.17383C195.322 0.976888 195.368 0.827148 195.459 0.724609C195.552 0.62207 195.686 0.570801 195.862 0.570801C196.033 0.570801 196.165 0.621257 196.26 0.722168C196.354 0.823079 196.401 0.973633 196.401 1.17383C196.401 1.36751 196.354 1.51725 196.26 1.62305C196.167 1.72721 196.034 1.7793 195.862 1.7793C195.688 1.7793 195.554 1.7264 195.461 1.62061C195.369 1.51318 195.322 1.36426 195.322 1.17383ZM200.202 1.17383C200.202 0.976888 200.248 0.827148 200.339 0.724609C200.432 0.62207 200.566 0.570801 200.742 0.570801C200.913 0.570801 201.045 0.621257 201.14 0.722168C201.234 0.823079 201.281 0.973633 201.281 1.17383C201.281 1.36751 201.234 1.51725 201.14 1.62305C201.047 1.72721 200.914 1.7793 200.742 1.7793C200.568 1.7793 200.434 1.7264 200.341 1.62061C200.249 1.51318 200.202 1.36426 200.202 1.17383ZM205.082 1.17383C205.082 0.976888 205.128 0.827148 205.219 0.724609C205.312 0.62207 205.446 0.570801 205.622 0.570801C205.792 0.570801 205.925 0.621257 206.02 0.722168C206.114 0.823079 206.161 0.973633 206.161 1.17383C206.161 1.36751 206.114 1.51725 206.02 1.62305C205.927 1.72721 205.794 1.7793 205.622 1.7793C205.447 1.7793 205.314 1.7264 205.221 1.62061C205.128 1.51318 205.082 1.36426 205.082 1.17383ZM209.962 1.17383C209.962 0.976888 210.007 0.827148 210.099 0.724609C210.191 0.62207 210.326 0.570801 210.501 0.570801C210.672 0.570801 210.805 0.621257 210.899 0.722168C210.994 0.823079 211.041 0.973633 211.041 1.17383C211.041 1.36751 210.994 1.51725 210.899 1.62305C210.807 1.72721 210.674 1.7793 210.501 1.7793C210.327 1.7793 210.194 1.7264 210.101 1.62061C210.008 1.51318 209.962 1.36426 209.962 1.17383ZM214.842 1.17383C214.842 0.976888 214.887 0.827148 214.979 0.724609C215.071 0.62207 215.206 0.570801 215.381 0.570801C215.552 0.570801 215.685 0.621257 215.779 0.722168C215.874 0.823079 215.921 0.973633 215.921 1.17383C215.921 1.36751 215.874 1.51725 215.779 1.62305C215.687 1.72721 215.554 1.7793 215.381 1.7793C215.207 1.7793 215.074 1.7264 214.981 1.62061C214.888 1.51318 214.842 1.36426 214.842 1.17383ZM219.722 1.17383C219.722 0.976888 219.767 0.827148 219.858 0.724609C219.951 0.62207 220.085 0.570801 220.261 0.570801C220.432 0.570801 220.565 0.621257 220.659 0.722168C220.754 0.823079 220.801 0.973633 220.801 1.17383C220.801 1.36751 220.754 1.51725 220.659 1.62305C220.566 1.72721 220.434 1.7793 220.261 1.7793C220.087 1.7793 219.954 1.7264 219.861 1.62061C219.768 1.51318 219.722 1.36426 219.722 1.17383ZM224.602 1.17383C224.602 0.976888 224.647 0.827148 224.738 0.724609C224.831 0.62207 224.965 0.570801 225.141 0.570801C225.312 0.570801 225.445 0.621257 225.539 0.722168C225.633 0.823079 225.681 0.973633 225.681 1.17383C225.681 1.36751 225.633 1.51725 225.539 1.62305C225.446 1.72721 225.314 1.7793 225.141 1.7793C224.967 1.7793 224.833 1.7264 224.741 1.62061C224.648 1.51318 224.602 1.36426 224.602 1.17383ZM229.481 1.17383C229.481 0.976888 229.527 0.827148 229.618 0.724609C229.711 0.62207 229.845 0.570801 230.021 0.570801C230.192 0.570801 230.325 0.621257 230.419 0.722168C230.513 0.823079 230.561 0.973633 230.561 1.17383C230.561 1.36751 230.513 1.51725 230.419 1.62305C230.326 1.72721 230.194 1.7793 230.021 1.7793C229.847 1.7793 229.713 1.7264 229.621 1.62061C229.528 1.51318 229.481 1.36426 229.481 1.17383ZM234.361 1.17383C234.361 0.976888 234.407 0.827148 234.498 0.724609C234.591 0.62207 234.725 0.570801 234.901 0.570801C235.072 0.570801 235.204 0.621257 235.299 0.722168C235.393 0.823079 235.44 0.973633 235.44 1.17383C235.44 1.36751 235.393 1.51725 235.299 1.62305C235.206 1.72721 235.073 1.7793 234.901 1.7793C234.727 1.7793 234.593 1.7264 234.5 1.62061C234.408 1.51318 234.361 1.36426 234.361 1.17383ZM239.241 1.17383C239.241 0.976888 239.287 0.827148 239.378 0.724609C239.471 0.62207 239.605 0.570801 239.781 0.570801C239.952 0.570801 240.084 0.621257 240.179 0.722168C240.273 0.823079 240.32 0.973633 240.32 1.17383C240.32 1.36751 240.273 1.51725 240.179 1.62305C240.086 1.72721 239.953 1.7793 239.781 1.7793C239.607 1.7793 239.473 1.7264 239.38 1.62061C239.288 1.51318 239.241 1.36426 239.241 1.17383ZM244.121 1.17383C244.121 0.976888 244.167 0.827148 244.258 0.724609C244.351 0.62207 244.485 0.570801 244.661 0.570801C244.832 0.570801 244.964 0.621257 245.059 0.722168C245.153 0.823079 245.2 0.973633 245.2 1.17383C245.2 1.36751 245.153 1.51725 245.059 1.62305C244.966 1.72721 244.833 1.7793 244.661 1.7793C244.486 1.7793 244.353 1.7264 244.26 1.62061C244.167 1.51318 244.121 1.36426 244.121 1.17383ZM249.001 1.17383C249.001 0.976888 249.047 0.827148 249.138 0.724609C249.23 0.62207 249.365 0.570801 249.541 0.570801C249.711 0.570801 249.844 0.621257 249.938 0.722168C250.033 0.823079 250.08 0.973633 250.08 1.17383C250.08 1.36751 250.033 1.51725 249.938 1.62305C249.846 1.72721 249.713 1.7793 249.541 1.7793C249.366 1.7793 249.233 1.7264 249.14 1.62061C249.047 1.51318 249.001 1.36426 249.001 1.17383ZM253.881 1.17383C253.881 0.976888 253.926 0.827148 254.018 0.724609C254.11 0.62207 254.245 0.570801 254.42 0.570801C254.591 0.570801 254.724 0.621257 254.818 0.722168C254.913 0.823079 254.96 0.973633 254.96 1.17383C254.96 1.36751 254.913 1.51725 254.818 1.62305C254.726 1.72721 254.593 1.7793 254.42 1.7793C254.246 1.7793 254.113 1.7264 254.02 1.62061C253.927 1.51318 253.881 1.36426 253.881 1.17383ZM258.761 1.17383C258.761 0.976888 258.806 0.827148 258.897 0.724609C258.99 0.62207 259.125 0.570801 259.3 0.570801C259.471 0.570801 259.604 0.621257 259.698 0.722168C259.793 0.823079 259.84 0.973633 259.84 1.17383C259.84 1.36751 259.793 1.51725 259.698 1.62305C259.605 1.72721 259.473 1.7793 259.3 1.7793C259.126 1.7793 258.993 1.7264 258.9 1.62061C258.807 1.51318 258.761 1.36426 258.761 1.17383ZM263.641 1.17383C263.641 0.976888 263.686 0.827148 263.777 0.724609C263.87 0.62207 264.004 0.570801 264.18 0.570801C264.351 0.570801 264.484 0.621257 264.578 0.722168C264.673 0.823079 264.72 0.973633 264.72 1.17383C264.72 1.36751 264.673 1.51725 264.578 1.62305C264.485 1.72721 264.353 1.7793 264.18 1.7793C264.006 1.7793 263.873 1.7264 263.78 1.62061C263.687 1.51318 263.641 1.36426 263.641 1.17383ZM268.521 1.17383C268.521 0.976888 268.566 0.827148 268.657 0.724609C268.75 0.62207 268.884 0.570801 269.06 0.570801C269.231 0.570801 269.364 0.621257 269.458 0.722168C269.552 0.823079 269.6 0.973633 269.6 1.17383C269.6 1.36751 269.552 1.51725 269.458 1.62305C269.365 1.72721 269.233 1.7793 269.06 1.7793C268.886 1.7793 268.752 1.7264 268.66 1.62061C268.567 1.51318 268.521 1.36426 268.521 1.17383ZM0.126953 1.17383C0.126953 0.976888 0.172526 0.827148 0.263672 0.724609C0.356445 0.62207 0.490723 0.570801 0.666504 0.570801C0.837402 0.570801 0.970052 0.621257 1.06445 0.722168C1.15885 0.823079 1.20605 0.973633 1.20605 1.17383C1.20605 1.36751 1.15885 1.51725 1.06445 1.62305C0.97168 1.72721 0.83903 1.7793 0.666504 1.7793C0.49235 1.7793 0.358887 1.7264 0.266113 1.62061C0.17334 1.51318 0.126953 1.36426 0.126953 1.17383ZM5.00684 1.17383C5.00684 0.976888 5.05241 0.827148 5.14355 0.724609C5.23633 0.62207 5.37061 0.570801 5.54639 0.570801C5.71729 0.570801 5.84993 0.621257 5.94434 0.722168C6.03874 0.823079 6.08594 0.973633 6.08594 1.17383C6.08594 1.36751 6.03874 1.51725 5.94434 1.62305C5.85156 1.72721 5.71891 1.7793 5.54639 1.7793C5.37223 1.7793 5.23877 1.7264 5.146 1.62061C5.05322 1.51318 5.00684 1.36426 5.00684 1.17383ZM9.88672 1.17383C9.88672 0.976888 9.93229 0.827148 10.0234 0.724609C10.1162 0.62207 10.2505 0.570801 10.4263 0.570801C10.5972 0.570801 10.7298 0.621257 10.8242 0.722168C10.9186 0.823079 10.9658 0.973633 10.9658 1.17383C10.9658 1.36751 10.9186 1.51725 10.8242 1.62305C10.7314 1.72721 10.5988 1.7793 10.4263 1.7793C10.2521 1.7793 10.1187 1.7264 10.0259 1.62061C9.93311 1.51318 9.88672 1.36426 9.88672 1.17383ZM14.7666 1.17383C14.7666 0.976888 14.8122 0.827148 14.9033 0.724609C14.9961 0.62207 15.1304 0.570801 15.3062 0.570801C15.4771 0.570801 15.6097 0.621257 15.7041 0.722168C15.7985 0.823079 15.8457 0.973633 15.8457 1.17383C15.8457 1.36751 15.7985 1.51725 15.7041 1.62305C15.6113 1.72721 15.4787 1.7793 15.3062 1.7793C15.132 1.7793 14.9985 1.7264 14.9058 1.62061C14.813 1.51318 14.7666 1.36426 14.7666 1.17383ZM19.6465 1.17383C19.6465 0.976888 19.6921 0.827148 19.7832 0.724609C19.876 0.62207 20.0103 0.570801 20.186 0.570801C20.3569 0.570801 20.4896 0.621257 20.584 0.722168C20.6784 0.823079 20.7256 0.973633 20.7256 1.17383C20.7256 1.36751 20.6784 1.51725 20.584 1.62305C20.4912 1.72721 20.3586 1.7793 20.186 1.7793C20.0119 1.7793 19.8784 1.7264 19.7856 1.62061C19.6929 1.51318 19.6465 1.36426 19.6465 1.17383ZM24.5264 1.17383C24.5264 0.976888 24.5719 0.827148 24.6631 0.724609C24.7559 0.62207 24.8901 0.570801 25.0659 0.570801C25.2368 0.570801 25.3695 0.621257 25.4639 0.722168C25.5583 0.823079 25.6055 0.973633 25.6055 1.17383C25.6055 1.36751 25.5583 1.51725 25.4639 1.62305C25.3711 1.72721 25.2384 1.7793 25.0659 1.7793C24.8918 1.7793 24.7583 1.7264 24.6655 1.62061C24.5728 1.51318 24.5264 1.36426 24.5264 1.17383ZM29.4062 1.17383C29.4062 0.976888 29.4518 0.827148 29.543 0.724609C29.6357 0.62207 29.77 0.570801 29.9458 0.570801C30.1167 0.570801 30.2493 0.621257 30.3438 0.722168C30.4382 0.823079 30.4854 0.973633 30.4854 1.17383C30.4854 1.36751 30.4382 1.51725 30.3438 1.62305C30.251 1.72721 30.1183 1.7793 29.9458 1.7793C29.7716 1.7793 29.6382 1.7264 29.5454 1.62061C29.4526 1.51318 29.4062 1.36426 29.4062 1.17383ZM34.2861 1.17383C34.2861 0.976888 34.3317 0.827148 34.4229 0.724609C34.5156 0.62207 34.6499 0.570801 34.8257 0.570801C34.9966 0.570801 35.1292 0.621257 35.2236 0.722168C35.318 0.823079 35.3652 0.973633 35.3652 1.17383C35.3652 1.36751 35.318 1.51725 35.2236 1.62305C35.1309 1.72721 34.9982 1.7793 34.8257 1.7793C34.6515 1.7793 34.5181 1.7264 34.4253 1.62061C34.3325 1.51318 34.2861 1.36426 34.2861 1.17383ZM39.166 1.17383C39.166 0.976888 39.2116 0.827148 39.3027 0.724609C39.3955 0.62207 39.5298 0.570801 39.7056 0.570801C39.8765 0.570801 40.0091 0.621257 40.1035 0.722168C40.1979 0.823079 40.2451 0.973633 40.2451 1.17383C40.2451 1.36751 40.1979 1.51725 40.1035 1.62305C40.0107 1.72721 39.8781 1.7793 39.7056 1.7793C39.5314 1.7793 39.3979 1.7264 39.3052 1.62061C39.2124 1.51318 39.166 1.36426 39.166 1.17383ZM44.0459 1.17383C44.0459 0.976888 44.0915 0.827148 44.1826 0.724609C44.2754 0.62207 44.4097 0.570801 44.5854 0.570801C44.7563 0.570801 44.889 0.621257 44.9834 0.722168C45.0778 0.823079 45.125 0.973633 45.125 1.17383C45.125 1.36751 45.0778 1.51725 44.9834 1.62305C44.8906 1.72721 44.758 1.7793 44.5854 1.7793C44.4113 1.7793 44.2778 1.7264 44.1851 1.62061C44.0923 1.51318 44.0459 1.36426 44.0459 1.17383ZM48.9258 1.17383C48.9258 0.976888 48.9714 0.827148 49.0625 0.724609C49.1553 0.62207 49.2896 0.570801 49.4653 0.570801C49.6362 0.570801 49.7689 0.621257 49.8633 0.722168C49.9577 0.823079 50.0049 0.973633 50.0049 1.17383C50.0049 1.36751 49.9577 1.51725 49.8633 1.62305C49.7705 1.72721 49.6379 1.7793 49.4653 1.7793C49.2912 1.7793 49.1577 1.7264 49.0649 1.62061C48.9722 1.51318 48.9258 1.36426 48.9258 1.17383ZM53.8057 1.17383C53.8057 0.976888 53.8512 0.827148 53.9424 0.724609C54.0352 0.62207 54.1694 0.570801 54.3452 0.570801C54.5161 0.570801 54.6488 0.621257 54.7432 0.722168C54.8376 0.823079 54.8848 0.973633 54.8848 1.17383C54.8848 1.36751 54.8376 1.51725 54.7432 1.62305C54.6504 1.72721 54.5177 1.7793 54.3452 1.7793C54.1711 1.7793 54.0376 1.7264 53.9448 1.62061C53.8521 1.51318 53.8057 1.36426 53.8057 1.17383ZM58.6855 1.17383C58.6855 0.976888 58.7311 0.827148 58.8223 0.724609C58.915 0.62207 59.0493 0.570801 59.2251 0.570801C59.396 0.570801 59.5286 0.621257 59.623 0.722168C59.7174 0.823079 59.7646 0.973633 59.7646 1.17383C59.7646 1.36751 59.7174 1.51725 59.623 1.62305C59.5303 1.72721 59.3976 1.7793 59.2251 1.7793C59.0509 1.7793 58.9175 1.7264 58.8247 1.62061C58.7319 1.51318 58.6855 1.36426 58.6855 1.17383ZM63.5654 1.17383C63.5654 0.976888 63.611 0.827148 63.7021 0.724609C63.7949 0.62207 63.9292 0.570801 64.105 0.570801C64.2759 0.570801 64.4085 0.621257 64.5029 0.722168C64.5973 0.823079 64.6445 0.973633 64.6445 1.17383C64.6445 1.36751 64.5973 1.51725 64.5029 1.62305C64.4102 1.72721 64.2775 1.7793 64.105 1.7793C63.9308 1.7793 63.7974 1.7264 63.7046 1.62061C63.6118 1.51318 63.5654 1.36426 63.5654 1.17383ZM68.4453 1.17383C68.4453 0.976888 68.4909 0.827148 68.582 0.724609C68.6748 0.62207 68.8091 0.570801 68.9849 0.570801C69.1558 0.570801 69.2884 0.621257 69.3828 0.722168C69.4772 0.823079 69.5244 0.973633 69.5244 1.17383C69.5244 1.36751 69.4772 1.51725 69.3828 1.62305C69.29 1.72721 69.1574 1.7793 68.9849 1.7793C68.8107 1.7793 68.6772 1.7264 68.5845 1.62061C68.4917 1.51318 68.4453 1.36426 68.4453 1.17383ZM73.3252 1.17383C73.3252 0.976888 73.3708 0.827148 73.4619 0.724609C73.5547 0.62207 73.689 0.570801 73.8647 0.570801C74.0356 0.570801 74.1683 0.621257 74.2627 0.722168C74.3571 0.823079 74.4043 0.973633 74.4043 1.17383C74.4043 1.36751 74.3571 1.51725 74.2627 1.62305C74.1699 1.72721 74.0373 1.7793 73.8647 1.7793C73.6906 1.7793 73.5571 1.7264 73.4644 1.62061C73.3716 1.51318 73.3252 1.36426 73.3252 1.17383ZM78.2051 1.17383C78.2051 0.976888 78.2507 0.827148 78.3418 0.724609C78.4346 0.62207 78.5688 0.570801 78.7446 0.570801C78.9155 0.570801 79.0482 0.621257 79.1426 0.722168C79.237 0.823079 79.2842 0.973633 79.2842 1.17383C79.2842 1.36751 79.237 1.51725 79.1426 1.62305C79.0498 1.72721 78.9172 1.7793 78.7446 1.7793C78.5705 1.7793 78.437 1.7264 78.3442 1.62061C78.2515 1.51318 78.2051 1.36426 78.2051 1.17383ZM83.085 1.17383C83.085 0.976888 83.1305 0.827148 83.2217 0.724609C83.3145 0.62207 83.4487 0.570801 83.6245 0.570801C83.7954 0.570801 83.9281 0.621257 84.0225 0.722168C84.1169 0.823079 84.1641 0.973633 84.1641 1.17383C84.1641 1.36751 84.1169 1.51725 84.0225 1.62305C83.9297 1.72721 83.797 1.7793 83.6245 1.7793C83.4504 1.7793 83.3169 1.7264 83.2241 1.62061C83.1313 1.51318 83.085 1.36426 83.085 1.17383ZM87.9648 1.17383C87.9648 0.976888 88.0104 0.827148 88.1016 0.724609C88.1943 0.62207 88.3286 0.570801 88.5044 0.570801C88.6753 0.570801 88.8079 0.621257 88.9023 0.722168C88.9967 0.823079 89.0439 0.973633 89.0439 1.17383C89.0439 1.36751 88.9967 1.51725 88.9023 1.62305C88.8096 1.72721 88.6769 1.7793 88.5044 1.7793C88.3302 1.7793 88.1968 1.7264 88.104 1.62061C88.0112 1.51318 87.9648 1.36426 87.9648 1.17383ZM92.8447 1.17383C92.8447 0.976888 92.8903 0.827148 92.9814 0.724609C93.0742 0.62207 93.2085 0.570801 93.3843 0.570801C93.5552 0.570801 93.6878 0.621257 93.7822 0.722168C93.8766 0.823079 93.9238 0.973633 93.9238 1.17383C93.9238 1.36751 93.8766 1.51725 93.7822 1.62305C93.6895 1.72721 93.5568 1.7793 93.3843 1.7793C93.2101 1.7793 93.0767 1.7264 92.9839 1.62061C92.8911 1.51318 92.8447 1.36426 92.8447 1.17383ZM97.7246 1.17383C97.7246 0.976888 97.7702 0.827148 97.8613 0.724609C97.9541 0.62207 98.0884 0.570801 98.2642 0.570801C98.4351 0.570801 98.5677 0.621257 98.6621 0.722168C98.7565 0.823079 98.8037 0.973633 98.8037 1.17383C98.8037 1.36751 98.7565 1.51725 98.6621 1.62305C98.5693 1.72721 98.4367 1.7793 98.2642 1.7793C98.09 1.7793 97.9565 1.7264 97.8638 1.62061C97.771 1.51318 97.7246 1.36426 97.7246 1.17383ZM102.604 1.17383C102.604 0.976888 102.65 0.827148 102.741 0.724609C102.834 0.62207 102.968 0.570801 103.144 0.570801C103.315 0.570801 103.448 0.621257 103.542 0.722168C103.636 0.823079 103.684 0.973633 103.684 1.17383C103.684 1.36751 103.636 1.51725 103.542 1.62305C103.449 1.72721 103.317 1.7793 103.144 1.7793C102.97 1.7793 102.836 1.7264 102.744 1.62061C102.651 1.51318 102.604 1.36426 102.604 1.17383ZM107.484 1.17383C107.484 0.976888 107.53 0.827148 107.621 0.724609C107.714 0.62207 107.848 0.570801 108.024 0.570801C108.195 0.570801 108.327 0.621257 108.422 0.722168C108.516 0.823079 108.563 0.973633 108.563 1.17383C108.563 1.36751 108.516 1.51725 108.422 1.62305C108.329 1.72721 108.196 1.7793 108.024 1.7793C107.85 1.7793 107.716 1.7264 107.624 1.62061C107.531 1.51318 107.484 1.36426 107.484 1.17383ZM112.364 1.17383C112.364 0.976888 112.41 0.827148 112.501 0.724609C112.594 0.62207 112.728 0.570801 112.904 0.570801C113.075 0.570801 113.207 0.621257 113.302 0.722168C113.396 0.823079 113.443 0.973633 113.443 1.17383C113.443 1.36751 113.396 1.51725 113.302 1.62305C113.209 1.72721 113.076 1.7793 112.904 1.7793C112.73 1.7793 112.596 1.7264 112.503 1.62061C112.411 1.51318 112.364 1.36426 112.364 1.17383ZM117.244 1.17383C117.244 0.976888 117.29 0.827148 117.381 0.724609C117.474 0.62207 117.608 0.570801 117.784 0.570801C117.955 0.570801 118.087 0.621257 118.182 0.722168C118.276 0.823079 118.323 0.973633 118.323 1.17383C118.323 1.36751 118.276 1.51725 118.182 1.62305C118.089 1.72721 117.956 1.7793 117.784 1.7793C117.61 1.7793 117.476 1.7264 117.383 1.62061C117.291 1.51318 117.244 1.36426 117.244 1.17383ZM122.124 1.17383C122.124 0.976888 122.17 0.827148 122.261 0.724609C122.354 0.62207 122.488 0.570801 122.664 0.570801C122.834 0.570801 122.967 0.621257 123.062 0.722168C123.156 0.823079 123.203 0.973633 123.203 1.17383C123.203 1.36751 123.156 1.51725 123.062 1.62305C122.969 1.72721 122.836 1.7793 122.664 1.7793C122.489 1.7793 122.356 1.7264 122.263 1.62061C122.17 1.51318 122.124 1.36426 122.124 1.17383ZM127.004 1.17383C127.004 0.976888 127.049 0.827148 127.141 0.724609C127.233 0.62207 127.368 0.570801 127.543 0.570801C127.714 0.570801 127.847 0.621257 127.941 0.722168C128.036 0.823079 128.083 0.973633 128.083 1.17383C128.083 1.36751 128.036 1.51725 127.941 1.62305C127.849 1.72721 127.716 1.7793 127.543 1.7793C127.369 1.7793 127.236 1.7264 127.143 1.62061C127.05 1.51318 127.004 1.36426 127.004 1.17383ZM131.884 1.17383C131.884 0.976888 131.929 0.827148 132.021 0.724609C132.113 0.62207 132.248 0.570801 132.423 0.570801C132.594 0.570801 132.727 0.621257 132.821 0.722168C132.916 0.823079 132.963 0.973633 132.963 1.17383C132.963 1.36751 132.916 1.51725 132.821 1.62305C132.729 1.72721 132.596 1.7793 132.423 1.7793C132.249 1.7793 132.116 1.7264 132.023 1.62061C131.93 1.51318 131.884 1.36426 131.884 1.17383ZM136.764 1.17383C136.764 0.976888 136.809 0.827148 136.9 0.724609C136.993 0.62207 137.127 0.570801 137.303 0.570801C137.474 0.570801 137.607 0.621257 137.701 0.722168C137.796 0.823079 137.843 0.973633 137.843 1.17383C137.843 1.36751 137.796 1.51725 137.701 1.62305C137.608 1.72721 137.476 1.7793 137.303 1.7793C137.129 1.7793 136.996 1.7264 136.903 1.62061C136.81 1.51318 136.764 1.36426 136.764 1.17383ZM141.644 1.17383C141.644 0.976888 141.689 0.827148 141.78 0.724609C141.873 0.62207 142.007 0.570801 142.183 0.570801C142.354 0.570801 142.487 0.621257 142.581 0.722168C142.675 0.823079 142.723 0.973633 142.723 1.17383C142.723 1.36751 142.675 1.51725 142.581 1.62305C142.488 1.72721 142.356 1.7793 142.183 1.7793C142.009 1.7793 141.875 1.7264 141.783 1.62061C141.69 1.51318 141.644 1.36426 141.644 1.17383ZM146.523 1.17383C146.523 0.976888 146.569 0.827148 146.66 0.724609C146.753 0.62207 146.887 0.570801 147.063 0.570801C147.234 0.570801 147.367 0.621257 147.461 0.722168C147.555 0.823079 147.603 0.973633 147.603 1.17383C147.603 1.36751 147.555 1.51725 147.461 1.62305C147.368 1.72721 147.236 1.7793 147.063 1.7793C146.889 1.7793 146.755 1.7264 146.663 1.62061C146.57 1.51318 146.523 1.36426 146.523 1.17383ZM151.403 1.17383C151.403 0.976888 151.449 0.827148 151.54 0.724609C151.633 0.62207 151.767 0.570801 151.943 0.570801C152.114 0.570801 152.246 0.621257 152.341 0.722168C152.435 0.823079 152.482 0.973633 152.482 1.17383C152.482 1.36751 152.435 1.51725 152.341 1.62305C152.248 1.72721 152.115 1.7793 151.943 1.7793C151.769 1.7793 151.635 1.7264 151.542 1.62061C151.45 1.51318 151.403 1.36426 151.403 1.17383ZM156.283 1.17383C156.283 0.976888 156.329 0.827148 156.42 0.724609C156.513 0.62207 156.647 0.570801 156.823 0.570801C156.994 0.570801 157.126 0.621257 157.221 0.722168C157.315 0.823079 157.362 0.973633 157.362 1.17383C157.362 1.36751 157.315 1.51725 157.221 1.62305C157.128 1.72721 156.995 1.7793 156.823 1.7793C156.649 1.7793 156.515 1.7264 156.422 1.62061C156.33 1.51318 156.283 1.36426 156.283 1.17383ZM161.163 1.17383C161.163 0.976888 161.209 0.827148 161.3 0.724609C161.393 0.62207 161.527 0.570801 161.703 0.570801C161.874 0.570801 162.006 0.621257 162.101 0.722168C162.195 0.823079 162.242 0.973633 162.242 1.17383C162.242 1.36751 162.195 1.51725 162.101 1.62305C162.008 1.72721 161.875 1.7793 161.703 1.7793C161.528 1.7793 161.395 1.7264 161.302 1.62061C161.209 1.51318 161.163 1.36426 161.163 1.17383ZM166.043 1.17383C166.043 0.976888 166.089 0.827148 166.18 0.724609C166.272 0.62207 166.407 0.570801 166.583 0.570801C166.753 0.570801 166.886 0.621257 166.98 0.722168C167.075 0.823079 167.122 0.973633 167.122 1.17383C167.122 1.36751 167.075 1.51725 166.98 1.62305C166.888 1.72721 166.755 1.7793 166.583 1.7793C166.408 1.7793 166.275 1.7264 166.182 1.62061C166.089 1.51318 166.043 1.36426 166.043 1.17383ZM170.923 1.17383C170.923 0.976888 170.968 0.827148 171.06 0.724609C171.152 0.62207 171.287 0.570801 171.462 0.570801C171.633 0.570801 171.766 0.621257 171.86 0.722168C171.955 0.823079 172.002 0.973633 172.002 1.17383C172.002 1.36751 171.955 1.51725 171.86 1.62305C171.768 1.72721 171.635 1.7793 171.462 1.7793C171.288 1.7793 171.155 1.7264 171.062 1.62061C170.969 1.51318 170.923 1.36426 170.923 1.17383ZM175.803 1.17383C175.803 0.976888 175.848 0.827148 175.939 0.724609C176.032 0.62207 176.167 0.570801 176.342 0.570801C176.513 0.570801 176.646 0.621257 176.74 0.722168C176.835 0.823079 176.882 0.973633 176.882 1.17383C176.882 1.36751 176.835 1.51725 176.74 1.62305C176.647 1.72721 176.515 1.7793 176.342 1.7793C176.168 1.7793 176.035 1.7264 175.942 1.62061C175.849 1.51318 175.803 1.36426 175.803 1.17383ZM180.683 1.17383C180.683 0.976888 180.728 0.827148 180.819 0.724609C180.912 0.62207 181.046 0.570801 181.222 0.570801C181.393 0.570801 181.526 0.621257 181.62 0.722168C181.715 0.823079 181.762 0.973633 181.762 1.17383C181.762 1.36751 181.715 1.51725 181.62 1.62305C181.527 1.72721 181.395 1.7793 181.222 1.7793C181.048 1.7793 180.915 1.7264 180.822 1.62061C180.729 1.51318 180.683 1.36426 180.683 1.17383ZM185.562 1.17383C185.562 0.976888 185.608 0.827148 185.699 0.724609C185.792 0.62207 185.926 0.570801 186.102 0.570801C186.273 0.570801 186.406 0.621257 186.5 0.722168C186.594 0.823079 186.642 0.973633 186.642 1.17383C186.642 1.36751 186.594 1.51725 186.5 1.62305C186.407 1.72721 186.275 1.7793 186.102 1.7793C185.928 1.7793 185.794 1.7264 185.702 1.62061C185.609 1.51318 185.562 1.36426 185.562 1.17383ZM190.442 1.17383C190.442 0.976888 190.488 0.827148 190.579 0.724609C190.672 0.62207 190.806 0.570801 190.982 0.570801C191.153 0.570801 191.285 0.621257 191.38 0.722168C191.474 0.823079 191.521 0.973633 191.521 1.17383C191.521 1.36751 191.474 1.51725 191.38 1.62305C191.287 1.72721 191.154 1.7793 190.982 1.7793C190.808 1.7793 190.674 1.7264 190.582 1.62061C190.489 1.51318 190.442 1.36426 190.442 1.17383ZM195.322 1.17383C195.322 0.976888 195.368 0.827148 195.459 0.724609C195.552 0.62207 195.686 0.570801 195.862 0.570801C196.033 0.570801 196.165 0.621257 196.26 0.722168C196.354 0.823079 196.401 0.973633 196.401 1.17383C196.401 1.36751 196.354 1.51725 196.26 1.62305C196.167 1.72721 196.034 1.7793 195.862 1.7793C195.688 1.7793 195.554 1.7264 195.461 1.62061C195.369 1.51318 195.322 1.36426 195.322 1.17383ZM200.202 1.17383C200.202 0.976888 200.248 0.827148 200.339 0.724609C200.432 0.62207 200.566 0.570801 200.742 0.570801C200.913 0.570801 201.045 0.621257 201.14 0.722168C201.234 0.823079 201.281 0.973633 201.281 1.17383C201.281 1.36751 201.234 1.51725 201.14 1.62305C201.047 1.72721 200.914 1.7793 200.742 1.7793C200.568 1.7793 200.434 1.7264 200.341 1.62061C200.249 1.51318 200.202 1.36426 200.202 1.17383ZM205.082 1.17383C205.082 0.976888 205.128 0.827148 205.219 0.724609C205.312 0.62207 205.446 0.570801 205.622 0.570801C205.792 0.570801 205.925 0.621257 206.02 0.722168C206.114 0.823079 206.161 0.973633 206.161 1.17383C206.161 1.36751 206.114 1.51725 206.02 1.62305C205.927 1.72721 205.794 1.7793 205.622 1.7793C205.447 1.7793 205.314 1.7264 205.221 1.62061C205.128 1.51318 205.082 1.36426 205.082 1.17383ZM209.962 1.17383C209.962 0.976888 210.007 0.827148 210.099 0.724609C210.191 0.62207 210.326 0.570801 210.501 0.570801C210.672 0.570801 210.805 0.621257 210.899 0.722168C210.994 0.823079 211.041 0.973633 211.041 1.17383C211.041 1.36751 210.994 1.51725 210.899 1.62305C210.807 1.72721 210.674 1.7793 210.501 1.7793C210.327 1.7793 210.194 1.7264 210.101 1.62061C210.008 1.51318 209.962 1.36426 209.962 1.17383ZM214.842 1.17383C214.842 0.976888 214.887 0.827148 214.979 0.724609C215.071 0.62207 215.206 0.570801 215.381 0.570801C215.552 0.570801 215.685 0.621257 215.779 0.722168C215.874 0.823079 215.921 0.973633 215.921 1.17383C215.921 1.36751 215.874 1.51725 215.779 1.62305C215.687 1.72721 215.554 1.7793 215.381 1.7793C215.207 1.7793 215.074 1.7264 214.981 1.62061C214.888 1.51318 214.842 1.36426 214.842 1.17383ZM219.722 1.17383C219.722 0.976888 219.767 0.827148 219.858 0.724609C219.951 0.62207 220.085 0.570801 220.261 0.570801C220.432 0.570801 220.565 0.621257 220.659 0.722168C220.754 0.823079 220.801 0.973633 220.801 1.17383C220.801 1.36751 220.754 1.51725 220.659 1.62305C220.566 1.72721 220.434 1.7793 220.261 1.7793C220.087 1.7793 219.954 1.7264 219.861 1.62061C219.768 1.51318 219.722 1.36426 219.722 1.17383ZM224.602 1.17383C224.602 0.976888 224.647 0.827148 224.738 0.724609C224.831 0.62207 224.965 0.570801 225.141 0.570801C225.312 0.570801 225.445 0.621257 225.539 0.722168C225.633 0.823079 225.681 0.973633 225.681 1.17383C225.681 1.36751 225.633 1.51725 225.539 1.62305C225.446 1.72721 225.314 1.7793 225.141 1.7793C224.967 1.7793 224.833 1.7264 224.741 1.62061C224.648 1.51318 224.602 1.36426 224.602 1.17383ZM229.481 1.17383C229.481 0.976888 229.527 0.827148 229.618 0.724609C229.711 0.62207 229.845 0.570801 230.021 0.570801C230.192 0.570801 230.325 0.621257 230.419 0.722168C230.513 0.823079 230.561 0.973633 230.561 1.17383C230.561 1.36751 230.513 1.51725 230.419 1.62305C230.326 1.72721 230.194 1.7793 230.021 1.7793C229.847 1.7793 229.713 1.7264 229.621 1.62061C229.528 1.51318 229.481 1.36426 229.481 1.17383ZM234.361 1.17383C234.361 0.976888 234.407 0.827148 234.498 0.724609C234.591 0.62207 234.725 0.570801 234.901 0.570801C235.072 0.570801 235.204 0.621257 235.299 0.722168C235.393 0.823079 235.44 0.973633 235.44 1.17383C235.44 1.36751 235.393 1.51725 235.299 1.62305C235.206 1.72721 235.073 1.7793 234.901 1.7793C234.727 1.7793 234.593 1.7264 234.5 1.62061C234.408 1.51318 234.361 1.36426 234.361 1.17383ZM239.241 1.17383C239.241 0.976888 239.287 0.827148 239.378 0.724609C239.471 0.62207 239.605 0.570801 239.781 0.570801C239.952 0.570801 240.084 0.621257 240.179 0.722168C240.273 0.823079 240.32 0.973633 240.32 1.17383C240.32 1.36751 240.273 1.51725 240.179 1.62305C240.086 1.72721 239.953 1.7793 239.781 1.7793C239.607 1.7793 239.473 1.7264 239.38 1.62061C239.288 1.51318 239.241 1.36426 239.241 1.17383ZM244.121 1.17383C244.121 0.976888 244.167 0.827148 244.258 0.724609C244.351 0.62207 244.485 0.570801 244.661 0.570801C244.832 0.570801 244.964 0.621257 245.059 0.722168C245.153 0.823079 245.2 0.973633 245.2 1.17383C245.2 1.36751 245.153 1.51725 245.059 1.62305C244.966 1.72721 244.833 1.7793 244.661 1.7793C244.486 1.7793 244.353 1.7264 244.26 1.62061C244.167 1.51318 244.121 1.36426 244.121 1.17383ZM249.001 1.17383C249.001 0.976888 249.047 0.827148 249.138 0.724609C249.23 0.62207 249.365 0.570801 249.541 0.570801C249.711 0.570801 249.844 0.621257 249.938 0.722168C250.033 0.823079 250.08 0.973633 250.08 1.17383C250.08 1.36751 250.033 1.51725 249.938 1.62305C249.846 1.72721 249.713 1.7793 249.541 1.7793C249.366 1.7793 249.233 1.7264 249.14 1.62061C249.047 1.51318 249.001 1.36426 249.001 1.17383ZM253.881 1.17383C253.881 0.976888 253.926 0.827148 254.018 0.724609C254.11 0.62207 254.245 0.570801 254.42 0.570801C254.591 0.570801 254.724 0.621257 254.818 0.722168C254.913 0.823079 254.96 0.973633 254.96 1.17383C254.96 1.36751 254.913 1.51725 254.818 1.62305C254.726 1.72721 254.593 1.7793 254.42 1.7793C254.246 1.7793 254.113 1.7264 254.02 1.62061C253.927 1.51318 253.881 1.36426 253.881 1.17383ZM258.761 1.17383C258.761 0.976888 258.806 0.827148 258.897 0.724609C258.99 0.62207 259.125 0.570801 259.3 0.570801C259.471 0.570801 259.604 0.621257 259.698 0.722168C259.793 0.823079 259.84 0.973633 259.84 1.17383C259.84 1.36751 259.793 1.51725 259.698 1.62305C259.605 1.72721 259.473 1.7793 259.3 1.7793C259.126 1.7793 258.993 1.7264 258.9 1.62061C258.807 1.51318 258.761 1.36426 258.761 1.17383ZM263.641 1.17383C263.641 0.976888 263.686 0.827148 263.777 0.724609C263.87 0.62207 264.004 0.570801 264.18 0.570801C264.351 0.570801 264.484 0.621257 264.578 0.722168C264.673 0.823079 264.72 0.973633 264.72 1.17383C264.72 1.36751 264.673 1.51725 264.578 1.62305C264.485 1.72721 264.353 1.7793 264.18 1.7793C264.006 1.7793 263.873 1.7264 263.78 1.62061C263.687 1.51318 263.641 1.36426 263.641 1.17383ZM268.521 1.17383C268.521 0.976888 268.566 0.827148 268.657 0.724609C268.75 0.62207 268.884 0.570801 269.06 0.570801C269.231 0.570801 269.364 0.621257 269.458 0.722168C269.552 0.823079 269.6 0.973633 269.6 1.17383C269.6 1.36751 269.552 1.51725 269.458 1.62305C269.365 1.72721 269.233 1.7793 269.06 1.7793C268.886 1.7793 268.752 1.7264 268.66 1.62061C268.567 1.51318 268.521 1.36426 268.521 1.17383Z" fill="#999999"/>
</svg>
