<svg width="25" height="25" viewBox="0 0 25 25" fill="none" xmlns="http://www.w3.org/2000/svg">
<path d="M20.833 7.29199H4.16634C3.01575 7.29199 2.08301 8.22473 2.08301 9.37533V19.792C2.08301 20.9426 3.01575 21.8753 4.16634 21.8753H20.833C21.9836 21.8753 22.9163 20.9426 22.9163 19.792V9.37533C22.9163 8.22473 21.9836 7.29199 20.833 7.29199Z" stroke="#FF862F" stroke-width="2" stroke-linecap="round" stroke-linejoin="round"/>
<path d="M16.6663 21.875V5.20833C16.6663 4.6558 16.4468 4.12589 16.0561 3.73519C15.6654 3.34449 15.1355 3.125 14.583 3.125H10.4163C9.86381 3.125 9.3339 3.34449 8.9432 3.73519C8.5525 4.12589 8.33301 4.6558 8.33301 5.20833V21.875" stroke="#FF862F" stroke-width="2" stroke-linecap="round" stroke-linejoin="round"/>
</svg>
